<svg width="20" height="19" viewBox="0 0 20 19" fill="none" xmlns="http://www.w3.org/2000/svg">
<rect x="0.920752" y="0.463721" width="18.0599" height="18.0599" rx="9.02994" fill="#BA0000" fill-opacity="0.18"/>
<rect x="0.920752" y="0.463721" width="18.0599" height="18.0599" rx="9.02994" stroke="#BA0000" stroke-width="0.622755" stroke-dasharray="1.87 1.87"/>
<path d="M7.90439 13.1747C7.69587 13.1747 7.518 13.1012 7.37079 12.9543C7.22389 12.8074 7.15044 12.6295 7.15044 12.4207V6.63882H6.68359V6.17197H8.55097V5.8125H11.352V6.17197H13.2194V6.63882H12.7526V12.4207C12.7526 12.6354 12.6807 12.8147 12.5369 12.9585C12.3928 13.1026 12.2134 13.1747 11.9986 13.1747H7.90439ZM12.2857 6.63882H7.61728V12.4207C7.61728 12.5044 7.64421 12.5732 7.69805 12.627C7.75189 12.6809 7.82067 12.7078 7.90439 12.7078H11.9986C12.0702 12.7078 12.136 12.6779 12.1961 12.6182C12.2559 12.5581 12.2857 12.4923 12.2857 12.4207V6.63882ZM8.92819 11.7741H9.39503V7.57251H8.92819V11.7741ZM10.508 11.7741H10.9748V7.57251H10.508V11.7741Z" fill="#BA0000"/>
</svg>
